<svg width="40" height="40" viewBox="0 0 40 40" fill="none" xmlns="http://www.w3.org/2000/svg">
<path d="M14.0127 8.92308C15.6508 8.92308 16.8737 9.4 17.6889 10.3538C18.5041 11.3077 18.9117 12.6385 18.9117 14.3615V14.7615H16.643V14.2C16.643 13.2077 16.4276 12.4385 16.0046 11.9C15.5816 11.3615 14.9356 11.0923 14.0665 11.0923C13.159 11.0923 12.4899 11.3846 12.0669 11.9615C11.6439 12.5385 11.4286 13.4231 11.4286 14.6V19.4769C12.0515 17.9231 13.2205 17.1462 14.9356 17.1462C16.3046 17.1462 17.3197 17.6 17.9812 18.5154C18.6426 19.4231 18.9733 20.6923 18.9733 22.3V25.5923C18.9733 27.2923 18.5503 28.6308 17.6966 29.6154C16.8506 30.6 15.6201 31.0923 14.005 31.0923C12.3669 31.0923 11.1286 30.6 10.2826 29.6154C9.43665 28.6308 9.00596 27.2923 9.00596 25.5923V14.5077C9.00596 12.7308 9.42127 11.3538 10.2519 10.3769C11.0825 9.4 12.3284 8.91538 14.005 8.91538L14.0127 8.92308ZM0.0153817 14.7692C0.0153817 13.6538 0.730629 12.7 1.72275 12.3462C1.7612 9.7 1.99962 7.23846 3.16862 5.31538C4.51452 3.10769 6.99865 1.70769 11.5824 1.70769H12.3669C12.7206 0.715385 13.6743 0 14.7818 0C16.1969 0 17.3505 1.14615 17.3505 2.56923C17.3505 3.98462 16.2046 5.13846 14.7818 5.13846C13.6666 5.13846 12.7206 4.43077 12.3669 3.43846H11.5824C7.70621 3.43846 5.67583 4.51539 4.63757 6.21539C3.67622 7.79231 3.46856 9.96923 3.4378 12.3462C4.42992 12.7 5.13747 13.6462 5.13747 14.7615C5.13747 16.1769 3.99154 17.3308 2.56874 17.3308C1.15362 17.3308 0 16.1846 0 14.7615L0.0153817 14.7692ZM0.0153817 25.2385C0.0153817 23.8231 1.16131 22.6692 2.58412 22.6692C3.99923 22.6692 5.15285 23.8154 5.15285 25.2385C5.15285 26.3538 4.4453 27.3 3.45318 27.6538C3.48395 30.0308 3.68391 32.2154 4.64526 33.7923C5.68352 35.4923 7.7139 36.5692 11.5901 36.5692H12.3745C12.7283 35.5769 13.682 34.8615 14.7895 34.8615C16.2046 34.8615 17.3582 36.0077 17.3582 37.4308C17.3582 38.8462 16.2123 40 14.7895 40C13.6743 40 12.7283 39.2923 12.3745 38.3H11.5901C6.99865 38.3 4.52221 36.9 3.17631 34.6923C1.99962 32.7692 1.7612 30.3077 1.73044 27.6615C0.730629 27.3077 0.0153817 26.3615 0.0153817 25.2385V25.2385ZM34.8625 14.7692C34.8625 13.6538 35.5701 12.7077 36.5622 12.3538C36.5314 9.97692 36.3315 7.79231 35.3701 6.21539C34.3319 4.51539 32.3015 3.43846 28.4253 3.43846H27.6793C27.3255 4.43077 26.3795 5.13846 25.2644 5.13846C23.8493 5.13846 22.6956 3.99231 22.6956 2.56923C22.6956 1.15385 23.8416 0 25.2644 0C26.3795 0 27.3255 0.715385 27.6793 1.70769H28.4253C33.0167 1.70769 35.4932 3.10769 36.8391 5.31538C38.0158 7.23846 38.2542 9.69231 38.2849 12.3385C39.2848 12.6923 40 13.6462 40 14.7615C40 16.1769 38.8541 17.3308 37.4313 17.3308C36.0162 17.3308 34.8625 16.1846 34.8625 14.7615V14.7692ZM34.8625 25.2385C34.8625 23.8231 36.0085 22.6692 37.4313 22.6692C38.8464 22.6692 40 23.8154 40 25.2385C40 26.3538 39.2848 27.3077 38.2926 27.6615C38.2542 30.3077 38.0158 32.7692 36.8468 34.6923C35.5009 36.9 33.0167 38.3 28.433 38.3H27.687C27.3332 39.2923 26.3872 40 25.2721 40C23.857 40 22.7033 38.8538 22.7033 37.4308C22.7033 36.0154 23.8493 34.8615 25.2721 34.8615C26.3872 34.8615 27.3332 35.5769 27.687 36.5692H28.433C32.3092 36.5692 34.3395 35.4923 35.3778 33.7923C36.3392 32.2154 36.5468 30.0385 36.5776 27.6538C35.5855 27.3 34.8779 26.3538 34.8779 25.2385H34.8625ZM14.0127 19.3462C13.1436 19.3462 12.4976 19.6231 12.0746 20.1692C11.6516 20.7154 11.4363 21.4923 11.4363 22.4846V25.7462C11.4363 26.7385 11.6516 27.5077 12.0746 28.0615C12.4976 28.6077 13.1436 28.8846 14.0127 28.8846C14.8587 28.8846 15.5047 28.6077 15.9354 28.0615C16.3738 27.5154 16.5891 26.7385 16.5891 25.7462V22.4846C16.5891 21.4923 16.3738 20.7231 15.9354 20.1692C15.497 19.6231 14.8587 19.3462 14.0127 19.3462V19.3462ZM30.0634 30.8615H27.7024V26.4846H20.6883V24.2769L27.4255 9.12308H30.0634V24.2769H31.8016V26.4846H30.0634V30.8615ZM27.7024 24.2769V13.6615L22.9187 24.2769H27.7024Z" fill="#252525"/>
</svg>
