<svg width="16" height="12" viewBox="0 0 16 12" fill="none" xmlns="http://www.w3.org/2000/svg">
<path fill-rule="evenodd" clip-rule="evenodd" d="M0.916341 0.166687C0.695327 0.166687 0.483366 0.254485 0.327085 0.410765C0.170805 0.567045 0.0830078 0.779007 0.0830078 1.00002C0.0830078 1.22103 0.170805 1.433 0.327085 1.58928C0.483366 1.74556 0.695327 1.83335 0.916341 1.83335H15.083C15.304 1.83335 15.516 1.74556 15.6723 1.58928C15.8285 1.433 15.9163 1.22103 15.9163 1.00002C15.9163 0.779007 15.8285 0.567045 15.6723 0.410765C15.516 0.254485 15.304 0.166687 15.083 0.166687H0.916341ZM0.0830078 6.00002C0.0830078 5.77901 0.170805 5.56705 0.327085 5.41076C0.483366 5.25448 0.695327 5.16669 0.916341 5.16669H15.083C15.304 5.16669 15.516 5.25448 15.6723 5.41076C15.8285 5.56705 15.9163 5.77901 15.9163 6.00002C15.9163 6.22103 15.8285 6.433 15.6723 6.58928C15.516 6.74556 15.304 6.83335 15.083 6.83335H0.916341C0.695327 6.83335 0.483366 6.74556 0.327085 6.58928C0.170805 6.433 0.0830078 6.22103 0.0830078 6.00002ZM0.0830078 11.0009C0.0830078 10.7798 0.170805 10.5679 0.327085 10.4116C0.483366 10.2553 0.695327 10.1675 0.916341 10.1675H15.083C15.304 10.1675 15.516 10.2553 15.6723 10.4116C15.8285 10.5679 15.9163 10.7798 15.9163 11.0009C15.9163 11.2219 15.8285 11.4338 15.6723 11.5901C15.516 11.7464 15.304 11.8342 15.083 11.8342H0.916341C0.695327 11.8342 0.483366 11.7464 0.327085 11.5901C0.170805 11.4338 0.0830078 11.2219 0.0830078 11.0009Z" fill="white"/>
</svg>
